<svg width="81" height="81" viewBox="0 0 81 81" fill="none" xmlns="http://www.w3.org/2000/svg">
    <path
        d="M12.6462 0.618805L0.285583 12.9795V68.2583L12.6464 80.6188H67.9246L80.2856 68.2583V12.9795L67.9251 0.618805H12.6462ZM34.5766 62.7463H23.5131C23.5131 53.5948 16.0691 46.1508 6.91768 46.1508V35.0868C16.0691 35.0868 23.5131 27.643 23.5131 18.4915H34.5766C34.5766 27.5709 30.1198 35.5728 23.342 40.6188C30.1198 45.6653 34.5766 53.6668 34.5766 62.7463ZM73.6191 46.1508C64.4676 46.1508 57.0236 53.5948 57.0236 62.7463H45.9596C45.9596 53.6668 50.4171 45.6653 57.1946 40.6188C50.4171 35.5728 45.9596 27.5709 45.9596 18.4915H57.0236C57.0236 27.643 64.4676 35.0868 73.6191 35.0868V46.1508Z"
        fill="#2EA967" />
</svg>
