<svg width="81" height="77" viewBox="0 0 81 77" fill="none" xmlns="http://www.w3.org/2000/svg">
    <path
        d="M58.6405 3.30557C58.6405 3.30557 89.4028 24.3434 77.5809 53.8345C65.7591 83.3255 42.6874 75.1265 51.4585 66.419C60.2295 57.7115 41.2256 52.0548 29.1495 40.7414L58.6405 3.30557Z"
        fill="#FFEAC0" />
    <mask id="mask0_26_747" style="mask-type:alpha" maskUnits="userSpaceOnUse" x="0" y="0" width="64" height="77">
        <path
            d="M56.8606 32.2885C50.4412 40.4875 41.2253 44.6188 34.0432 43.0934L9.44608 74.6184C7.66645 76.9065 4.55209 77.1607 2.26399 75.3811C-0.0241151 73.6014 -0.278349 70.4871 1.24705 68.199L25.8441 36.9283C22.5391 30.5089 24.3187 20.5302 30.9924 12.0769C39.1914 1.78049 51.4582 -2.03301 58.6402 3.30589C65.8223 8.64479 64.8054 21.8014 56.8606 32.2885Z"
            fill="#FFD56C" />
    </mask>
    <g mask="url(#mask0_26_747)">
        <path d="M0.285583 0.899241H63.6187V77.5657H0.285583V0.899241Z" fill="#FFD56C" />
        <path d="M42.9725 -1.0296L45.9341 -0.639424L39.9743 44.5995L37.0126 44.2094L42.9725 -1.0296Z" fill="white" />
        <path d="M47.8408 -1.2356L54.3312 -0.380539L48.4799 44.035L41.9894 43.18L47.8408 -1.2356Z" fill="white" />
    </g>
</svg>
