<svg width="81" height="79" viewBox="0 0 81 79" fill="none" xmlns="http://www.w3.org/2000/svg">
    <path
        d="M13.2691 13.7313C13.2691 13.7313 14.2519 12.3247 14.6596 11.7016C15.0672 11.0785 13.6043 9.60638 13.0367 9.13996C12.4691 8.67354 11.5738 8.90675 11.5738 8.90675C4.43095 11.9348 0.857597 18.1477 0.369975 19.3903C-0.117646 20.6328 1.61189 21.9884 2.88808 22.6516C3.47475 22.9577 4.40809 22.2799 4.98333 21.777L5.17762 21.5876L5.47857 21.296L5.48238 21.2924L24.9149 39.8071L32.4501 32.5994L13.2424 13.7568L13.2691 13.7313Z"
        fill="#5865F2" />
    <path
        d="M59.1765 33.2621L60.2012 32.3293L69.4089 41.0528C69.4737 41.1075 69.5423 41.1293 69.6032 41.1293C69.7784 41.1293 69.9232 40.9763 69.9232 40.9763C69.9232 40.9763 80.1175 31.3017 80.1518 31.2689C80.4528 30.9847 80.1518 30.828 80.1518 30.828L72.2889 23.256L72.2775 23.2669L71.1994 22.2575L71.8013 21.7037L73.0889 21.8458L72.8451 20.2133L73.1689 19.8999L72.6851 17.546C71.0051 15.2685 66.4032 11.621 66.4032 11.621L63.9956 11.2056L63.7517 11.5153L61.9384 11.2566L62.1136 12.736L62.2279 12.8453L61.6908 13.3627L58.7193 10.5824C58.7193 10.5824 41.4773 1.62571 40.5592 1.21031C40.0412 0.980742 39.6602 0.827698 39.2945 0.827698C39.0126 0.827698 38.7383 0.918796 38.4221 1.13379C37.6907 1.62571 38.1211 2.61686 38.1211 2.61686L48.8412 21.5652L50.986 23.5985L50.0679 24.4767L48.3536 24.2507L48.6164 25.8759L48.1212 26.3496L48.0336 26.2658C47.9536 26.1893 47.8431 26.1492 47.7364 26.1492C47.6298 26.1492 47.5231 26.1893 47.4393 26.2658C47.2755 26.4225 47.2755 26.6776 47.4393 26.8343L47.5269 26.9181L47.2907 27.1477L47.2298 27.0857C47.146 27.0092 47.0393 26.9691 46.9326 26.9691C46.8221 26.9691 46.7155 27.0092 46.6355 27.0857C46.4717 27.2424 46.4717 27.4975 46.6355 27.6542L46.7002 27.7161L42.1897 32.0524L42.0869 31.954C42.0031 31.8774 41.8964 31.8374 41.7897 31.8374C41.6831 31.8374 41.5764 31.8774 41.4926 31.954C41.3288 32.1107 41.3288 32.3657 41.4926 32.5224L41.5993 32.6208L41.3593 32.8504L41.2793 32.7775C41.1993 32.6973 41.0888 32.6572 40.9859 32.6572C40.8754 32.6572 40.7688 32.6973 40.685 32.7775C40.525 32.9342 40.525 33.1856 40.685 33.3423L40.765 33.4188L40.1783 33.9873L40.0983 34.7088L40.4069 35.0112L40.3993 35.0149L40.0259 35.3792L15.6868 58.6565L15.3706 58.4051L14.361 58.5436L13.7896 59.0975L13.7515 59.061C13.6677 58.9809 13.561 58.9408 13.4544 58.9408C13.3477 58.9408 13.2372 58.9809 13.1572 59.061C12.9934 59.2177 12.9934 59.4691 13.1572 59.6258L13.2029 59.6696L12.9667 59.9028L12.9439 59.8809C12.8639 59.8007 12.7534 59.7607 12.6467 59.7607C12.5401 59.7607 12.4334 59.8007 12.3496 59.8809C12.1896 60.0376 12.1896 60.289 12.3496 60.4457L12.3763 60.4749L7.92291 64.8075L7.83148 64.72C7.74767 64.6398 7.64481 64.6034 7.53433 64.6034C7.42766 64.6034 7.321 64.6398 7.23719 64.72C7.07338 64.8767 7.07338 65.1318 7.23719 65.2885L7.33624 65.3796L7.10004 65.6091L7.02766 65.5399C6.94385 65.4634 6.83718 65.4233 6.72671 65.4233C6.62385 65.4233 6.51337 65.4634 6.43337 65.5399C6.26956 65.6966 6.26956 65.9517 6.43337 66.1083L6.50956 66.1849L6.17814 66.5092L4.45241 66.214L4.58194 68.0578L4.03717 68.5898L4.50955 71.075C4.50955 71.075 5.23337 73.2395 6.7229 74.6752C8.16672 76.0671 10.3686 76.734 10.4639 76.8032L12.9515 77.2186L13.5648 76.6429L15.2791 76.9089L14.9972 75.2873L15.5191 74.7991L15.7591 75.0286C15.8391 75.1052 15.9458 75.1452 16.0525 75.1452C16.1591 75.1452 16.2696 75.1052 16.3496 75.0286C16.5134 74.8683 16.5134 74.6169 16.3496 74.4602L16.1134 74.2343L16.3572 74.0083L16.5629 74.2051C16.6429 74.2853 16.7534 74.3254 16.8601 74.3254C16.9668 74.3254 17.0734 74.2853 17.1572 74.2051C17.321 74.0484 17.321 73.797 17.1572 73.6403L16.9553 73.4435L21.4773 69.1765L21.6754 69.366C21.7554 69.4462 21.8658 69.4826 21.9725 69.4826C22.0792 69.4826 22.1858 69.4462 22.2696 69.366C22.4296 69.2093 22.4296 68.9542 22.2696 68.7975L22.0754 68.6153L22.3154 68.3858L22.483 68.5461C22.563 68.6226 22.6696 68.6627 22.7763 68.6627C22.8868 68.6627 22.9935 68.6226 23.0735 68.5461C23.2373 68.3894 23.2373 68.1344 23.0735 67.9777L22.9096 67.821L23.4163 67.3473L23.5992 66.3088L23.3287 66.05L23.3325 66.0464L23.8239 65.58L47.9993 42.4484L47.9879 42.4266L48.4602 42.893L49.2183 42.8128L49.9002 42.1569L50.0107 42.2626C50.0945 42.3391 50.2012 42.3792 50.3079 42.3792C50.4145 42.3792 50.525 42.3391 50.605 42.2626C50.7688 42.1059 50.7688 41.8508 50.605 41.6941L50.4945 41.5885L50.7345 41.3625L50.8183 41.4427C50.8983 41.5192 51.005 41.5593 51.1155 41.5593C51.2222 41.5593 51.3288 41.5192 51.4088 41.4427C51.5726 41.286 51.5726 41.031 51.4088 40.8743L51.325 40.7905L55.8431 36.4615L55.9612 36.5744C56.0412 36.651 56.1479 36.6911 56.2546 36.6911C56.365 36.6911 56.4717 36.651 56.5517 36.5744C56.7155 36.4178 56.7155 36.1627 56.5517 36.006L56.4336 35.893L56.6736 35.6635L56.765 35.7546C56.8489 35.8311 56.9555 35.8712 57.0622 35.8712C57.1689 35.8712 57.2755 35.8311 57.3593 35.7546C57.5231 35.5942 57.5231 35.3428 57.3593 35.1861L57.2679 35.095L57.7708 34.614L59.4508 34.8655L59.1765 33.2621Z"
        fill="#5865F2" />
    <path
        d="M62.534 59.407L51.8178 51.6381L49.9092 49.7579L42.5149 56.8307L44.3739 58.5288L51.3568 68.5459L60.774 78.41L71.6274 68.7244L62.534 59.407Z"
        fill="#5865F2" />
</svg>
