<svg width="81" height="57" viewBox="0 0 81 57" fill="none" xmlns="http://www.w3.org/2000/svg">
    <path
        d="M54.4064 41.2365H50.1568C47.7047 41.203 45.3659 40.1983 43.6534 38.4429C41.9409 36.6875 40.9945 34.3245 41.0216 31.8723V27.4955C41.0149 27.011 41.1037 26.5298 41.2829 26.0796C41.4622 25.6294 41.7283 25.2189 42.0662 24.8715C42.4041 24.5241 42.8072 24.2468 43.2523 24.0552C43.6974 23.8636 44.1759 23.7616 44.6604 23.7549H64.7121V18.5384H29.0873C25.8557 25.8161 22.5476 33.3736 21.4534 36.3508C20.7733 38.0741 19.5934 39.5547 18.0653 40.6021C16.5371 41.6496 14.7307 42.2161 12.8781 42.2289V45.3588C15.713 48.1176 19.508 49.6685 23.4637 49.6847H55.4751C57.9229 49.678 60.2684 48.7026 61.9992 46.9718C63.7301 45.241 64.7054 42.8954 64.7121 40.4477V39.7861C63.2773 40.7324 61.5962 41.2368 59.8773 41.2365H54.4064ZM32.9552 34.1116C32.3268 34.1112 31.7129 33.9233 31.192 33.5719C30.6712 33.2205 30.2671 32.7215 30.0315 32.139C29.796 31.5565 29.7398 30.9169 29.87 30.3022C30.0002 29.6876 30.311 29.1257 30.7625 28.6888C31.214 28.2518 31.7857 27.9596 32.4044 27.8496C33.023 27.7396 33.6604 27.8168 34.2349 28.0713C34.8093 28.3258 35.2948 28.746 35.6289 29.2781C35.9631 29.8102 36.1308 30.43 36.1105 31.058C36.0841 31.8771 35.74 32.6537 35.1511 33.2237C34.5622 33.7936 33.7747 34.112 32.9552 34.1116Z"
        fill="#AABFF2" />
    <path
        d="M32.9553 27.8004C32.1184 27.8004 31.3158 28.1328 30.7241 28.7245C30.1324 29.3163 29.7999 30.1188 29.7999 30.9557C29.7999 31.7925 30.1324 32.5951 30.7241 33.1869C31.3158 33.7786 32.1184 34.111 32.9553 34.111C33.7921 34.111 34.5947 33.7786 35.1864 33.1869C35.7782 32.5951 36.1106 31.7925 36.1106 30.9557C36.1106 30.1188 35.7782 29.3163 35.1864 28.7245C34.5947 28.1328 33.7921 27.8004 32.9553 27.8004Z"
        fill="black" />
    <path
        d="M65.3482 23.7547H44.6604C44.1758 23.7614 43.6973 23.8634 43.2522 24.055C42.8071 24.2466 42.4041 24.524 42.0662 24.8713C41.7283 25.2187 41.4621 25.6292 41.2829 26.0794C41.1036 26.5297 41.0148 27.0108 41.0216 27.4953V31.8721C40.9944 34.3243 41.9408 36.6873 43.6533 38.4427C45.3658 40.1982 47.7046 41.2028 50.1568 41.2363H59.8773C61.5961 41.2366 63.2772 40.7323 64.712 39.7859C64.8022 39.7445 64.8876 39.6933 64.9665 39.6332C66.2028 38.7776 67.2156 37.6377 67.9197 36.3093C68.6237 34.9808 68.9985 33.5028 69.0125 31.9993V27.4953C69.0193 26.5144 68.6378 25.5705 67.9514 24.8698C67.2649 24.169 66.3291 23.7682 65.3482 23.7547ZM56.2893 37.1649H52.1925C51.9737 37.1931 51.7514 37.1743 51.5405 37.1099C51.3295 37.0454 51.1347 36.9367 50.9691 36.791C50.8034 36.6454 50.6707 36.4661 50.5798 36.2651C50.4889 36.0641 50.4419 35.846 50.4419 35.6254C50.4419 35.4048 50.4889 35.1868 50.5798 34.9858C50.6707 34.7848 50.8034 34.6055 50.9691 34.4598C51.1347 34.3142 51.3295 34.2055 51.5405 34.141C51.7514 34.0765 51.9737 34.0577 52.1925 34.0859H56.2893C56.5081 34.0577 56.7304 34.0765 56.9413 34.141C57.1523 34.2055 57.3471 34.3142 57.5127 34.4598C57.6784 34.6055 57.8111 34.7848 57.902 34.9858C57.9929 35.1868 58.0399 35.4048 58.0399 35.6254C58.0399 35.846 57.9929 36.0641 57.902 36.2651C57.8111 36.4661 57.6784 36.6454 57.5127 36.791C57.3471 36.9367 57.1523 37.0454 56.9413 37.1099C56.7304 37.1743 56.5081 37.1931 56.2893 37.1649ZM63.5415 37.1649H61.8875C61.6687 37.1931 61.4465 37.1743 61.2355 37.1099C61.0245 37.0454 60.8298 36.9367 60.6641 36.791C60.4985 36.6454 60.3658 36.4661 60.2749 36.2651C60.184 36.0641 60.137 35.846 60.137 35.6254C60.137 35.4048 60.184 35.1868 60.2749 34.9858C60.3658 34.7848 60.4985 34.6055 60.6641 34.4598C60.8298 34.3142 61.0245 34.2055 61.2355 34.141C61.4465 34.0765 61.6687 34.0577 61.8875 34.0859H63.4397C63.814 34.1341 64.1578 34.317 64.407 34.6004C64.6562 34.8837 64.7936 35.2481 64.7936 35.6254C64.7936 36.0028 64.6562 36.3672 64.407 36.6505C64.1578 36.9338 63.814 37.1167 63.4397 37.1649H63.5415Z"
        fill="#CBDAF7" />
    <path
        d="M56.2892 34.0862H52.1923C51.9735 34.058 51.7513 34.0768 51.5403 34.1413C51.3294 34.2058 51.1346 34.3144 50.9689 34.4601C50.8033 34.6058 50.6706 34.7851 50.5797 34.9861C50.4888 35.1871 50.4418 35.4051 50.4418 35.6257C50.4418 35.8463 50.4888 36.0644 50.5797 36.2654C50.6706 36.4663 50.8033 36.6457 50.9689 36.7913C51.1346 36.937 51.3294 37.0457 51.5403 37.1102C51.7513 37.1746 51.9735 37.1934 52.1923 37.1652H56.2892C56.508 37.1934 56.7302 37.1746 56.9412 37.1102C57.1522 37.0457 57.3469 36.937 57.5126 36.7913C57.6782 36.6457 57.8109 36.4663 57.9018 36.2654C57.9927 36.0644 58.0397 35.8463 58.0397 35.6257C58.0397 35.4051 57.9927 35.1871 57.9018 34.9861C57.8109 34.7851 57.6782 34.6058 57.5126 34.4601C57.3469 34.3144 57.1522 34.2058 56.9412 34.1413C56.7302 34.0768 56.508 34.058 56.2892 34.0862ZM63.4396 34.0862H61.8874C61.6686 34.058 61.4463 34.0768 61.2354 34.1413C61.0244 34.2058 60.8296 34.3144 60.664 34.4601C60.4983 34.6058 60.3656 34.7851 60.2747 34.9861C60.1838 35.1871 60.1368 35.4051 60.1368 35.6257C60.1368 35.8463 60.1838 36.0644 60.2747 36.2654C60.3656 36.4663 60.4983 36.6457 60.664 36.7913C60.8296 36.937 61.0244 37.0457 61.2354 37.1102C61.4463 37.1746 61.6686 37.1934 61.8874 37.1652H63.4396C63.8138 37.117 64.1577 36.9341 64.4069 36.6508C64.656 36.3675 64.7935 36.003 64.7935 35.6257C64.7935 35.2484 64.656 34.884 64.4069 34.6007C64.1577 34.3173 63.8138 34.1344 63.4396 34.0862Z"
        fill="#AABFF2" />
    <path
        d="M5.98145 39.6335C5.59504 39.4551 5.22099 39.2511 4.86182 39.0228V53.7307L8.80599 56.5044L12.7502 53.7307V42.1527C10.2515 42.2294 7.82194 41.3252 5.98145 39.6335Z"
        fill="#EF8843" />
    <path
        d="M18.8586 34.6458C18.3749 35.8474 17.6516 36.938 16.7328 37.8511C15.8139 38.7642 14.7188 39.4806 13.5141 39.9568C12.3095 40.433 11.0204 40.6589 9.72565 40.6207C8.43084 40.5826 7.15736 40.2812 5.98279 39.735C7.81928 41.436 10.2493 42.3496 12.7515 42.2797C14.6041 42.2669 16.4106 41.7004 17.9387 40.6529C19.4668 39.6054 20.6468 38.1249 21.3269 36.4016C22.472 33.5007 25.78 25.9431 28.9608 18.5892H25.7545C25.7545 18.5892 21.3269 28.3605 18.8586 34.6458Z"
        fill="#D0D9EA" />
    <path
        d="M37.1033 0.522705L39.2662 0.700829L37.1033 0.522705ZM29.1131 0.802614C30.6925 0.616865 32.2814 0.523404 33.8716 0.522705C32.2814 0.523404 30.6925 0.616865 29.1131 0.802614ZM55.8572 11.4646C58.9216 11.5303 61.976 11.8366 64.9924 12.3807C62.9821 10.0142 55.2719 2.20216 39.2662 0.802614C50.8443 3.57626 55.1192 10.1668 55.8572 11.4646ZM18.8583 34.6462C21.3266 28.3609 25.7542 18.5387 25.7542 18.5387C25.7542 18.5387 33.5917 12.6097 49.6992 11.5918C44.101 3.95795 34.864 1.41333 29.1386 0.802614C9.49407 2.91466 0.307959 17.8262 0.307959 29.735C0.189024 31.5463 0.547017 33.357 1.34623 34.9867C2.14545 36.6164 3.35796 38.0081 4.86284 39.0229C6.04086 39.7728 7.36837 40.2564 8.75266 40.44C10.1369 40.6236 11.5446 40.5028 12.8774 40.086C14.2101 39.6692 15.4358 38.9665 16.4689 38.0269C17.5019 37.0873 18.3174 35.9336 18.8583 34.6462ZM2.26732 27.4194C2.35976 25.5205 3.19163 23.7331 4.58497 22.4396C5.97832 21.1461 7.82252 20.4493 9.72308 20.498C11.5811 20.9073 13.2038 22.0303 14.2415 23.6249C15.2792 25.2195 15.6487 27.158 15.2704 29.0225C15.191 30.9035 14.3808 32.6793 13.0121 33.9719C11.6434 35.2646 9.82427 35.9721 7.94184 35.9439C7.00863 35.7586 6.1212 35.3907 5.33049 34.8615C4.53978 34.3324 3.86135 33.6522 3.33413 32.8602C2.80691 32.0682 2.44127 31.1799 2.2582 30.2462C2.07513 29.3125 2.07823 28.3519 2.26732 27.4194Z"
        fill="#EBEFF7" />
    <path
        d="M49.6485 11.5916C50.8191 11.5916 52.0151 11.5916 53.2619 11.4389H55.8065C55.0686 10.1412 50.7173 3.55058 39.2156 0.776939L37.1035 0.522476H33.8719C32.2816 0.523175 30.6928 0.616636 29.1134 0.802385C34.8134 1.48943 44.0504 3.83049 49.6485 11.5916Z"
        fill="#FC964B" />
    <path
        d="M53.2617 11.4385C52.0148 11.4385 50.717 11.4385 49.6483 11.5912C33.5408 12.6091 25.7542 18.538 25.7542 18.538H80.2856C75.7727 15.2746 70.5321 13.1609 65.0178 12.38C62.0015 11.836 58.947 11.5297 55.8826 11.464L53.2617 11.4385ZM7.94185 35.9433C9.82428 35.9715 11.6434 35.264 13.0121 33.9713C14.3808 32.6786 15.191 30.9029 15.2704 29.0219C15.6487 27.1574 15.2792 25.2189 14.2415 23.6243C13.2038 22.0297 11.5811 20.9067 9.72309 20.4974C7.82253 20.4486 5.97833 21.1455 4.58498 22.439C3.19163 23.7325 2.35977 25.5199 2.26733 27.4188C2.07824 28.3513 2.07514 29.3119 2.25821 30.2456C2.44128 31.1792 2.80691 32.0676 3.33414 32.8596C3.86136 33.6516 4.53979 34.3317 5.3305 34.8609C6.12121 35.3901 7.00863 35.7579 7.94185 35.9433ZM3.4633 27.6987C3.49261 27.0613 3.64779 26.436 3.91991 25.8589C4.19203 25.2817 4.5757 24.7642 5.0488 24.336C5.5219 23.9079 6.07507 23.5776 6.67642 23.3642C7.27777 23.1509 7.91541 23.0587 8.55256 23.0929C9.76434 23.3955 10.812 24.1552 11.4761 25.213C12.1402 26.2708 12.3692 27.5446 12.115 28.7675C12.0555 30.0297 11.5017 31.2178 10.5731 32.075C9.64457 32.9321 8.41599 33.3893 7.15302 33.3478C5.9197 33.0788 4.84158 32.3357 4.1513 31.2789C3.46101 30.222 3.21391 28.9361 3.4633 27.6987Z"
        fill="#647096" />
    <path
        d="M7.15355 33.3483C8.41652 33.3898 9.6451 32.9326 10.5736 32.0755C11.5022 31.2184 12.0561 30.0303 12.1156 28.768C12.3656 27.5274 12.1192 26.2383 11.4293 25.1774C10.7395 24.1164 9.66116 23.3683 8.42586 23.0935C7.16047 23.0588 5.93193 23.5217 5.00414 24.3829C4.07635 25.2441 3.52332 26.4348 3.46384 27.6993C3.21444 28.9367 3.46154 30.2226 4.15183 31.2794C4.84211 32.3363 5.92023 33.0793 7.15355 33.3483Z"
        fill="#FC964B" />
</svg>
