<svg width="81" height="81" viewBox="0 0 81 81" fill="none" xmlns="http://www.w3.org/2000/svg">
    <path d="M80.0142 39.8273L40.9719 0.784892C40.7958 0.611039 40.5584 0.51355 40.311 0.51355C40.0636 0.51355 39.8261 0.611039 39.6501 0.784892L0.556926 39.8273C0.383073 40.0033 0.285583 40.2407 0.285583 40.4881C0.285583 40.7355 0.383073 40.973 0.556926 41.149L39.5993 80.2422C39.7753 80.4161 40.0128 80.5135 40.2602 80.5135C40.5076 80.5135 40.745 80.4161 40.921 80.2422L80.0142 41.1998C80.1881 41.0238 80.2856 40.7864 80.2856 40.539C80.2856 40.2916 80.1881 40.0541 80.0142 39.8781V39.8273ZM63.162 31.0834L55.5365 45.8005C55.4857 45.9356 55.4891 46.0851 55.5459 46.2177C55.6028 46.3504 55.7087 46.4559 55.8415 46.5122H60.6456C60.7149 46.5184 60.7822 46.5387 60.8434 46.5719C60.9045 46.6051 60.9582 46.6505 61.0011 46.7053C61.044 46.7601 61.0752 46.8232 61.0927 46.8905C61.1103 46.9579 61.1138 47.0281 61.1031 47.0969C61.1041 47.1661 61.0885 47.2346 61.0575 47.2965C61.0266 47.3584 60.9812 47.412 60.9252 47.4527L40.7939 61.9919C40.6997 62.0409 40.5951 62.0665 40.4889 62.0665C40.3827 62.0665 40.2781 62.0409 40.1839 61.9919L19.951 47.4781C19.8545 47.3746 19.8009 47.2384 19.8009 47.0969C19.8009 46.9554 19.8545 46.8191 19.951 46.7156C20.0397 46.623 20.1553 46.5608 20.2815 46.5377H24.7805C24.9288 46.5377 25.071 46.4787 25.1759 46.3739C25.2808 46.269 25.3397 46.1268 25.3397 45.9785V45.8005L17.7142 31.0834C17.6523 30.9516 17.6442 30.8009 17.6916 30.6632C17.7391 30.5256 17.8384 30.4119 17.9684 30.3463C18.0243 30.321 18.085 30.3079 18.1463 30.3079C18.2077 30.3079 18.2683 30.321 18.3243 30.3463L36.422 42.2166C36.7532 42.3958 37.0133 42.6827 37.1591 43.0299L39.9297 48.5711C39.9569 48.6306 39.9958 48.684 40.0442 48.728C40.0925 48.772 40.1494 48.8057 40.2112 48.8271C40.2729 48.8485 40.3384 48.8571 40.4037 48.8524C40.4689 48.8477 40.5325 48.8299 40.5906 48.7999C40.6971 48.752 40.786 48.672 40.8448 48.5711L43.5137 43.0554C43.6972 42.7338 43.9488 42.4562 44.2508 42.242L62.3486 30.3463C62.412 30.3161 62.4807 30.2988 62.5508 30.2953C62.6209 30.2918 62.6911 30.3021 62.7572 30.3257C62.8233 30.3493 62.8841 30.3857 62.9361 30.4329C62.9881 30.48 63.0303 30.537 63.0603 30.6004C63.1169 30.6657 63.1559 30.7443 63.1737 30.8288C63.1915 30.9132 63.1874 31.0009 63.162 31.0834Z" fill="#45DDC0"/>
</svg>
