<svg width="81" height="76" viewBox="0 0 81 76" fill="none" xmlns="http://www.w3.org/2000/svg">
    <path d="M78.6506 19.8025L47.1729 40.4643C46.6325 40.8166 46.195 41.3056 45.9048 41.8816L41.1061 51.5039C41.0365 51.6636 40.9217 51.7995 40.776 51.895C40.6302 51.9904 40.4598 52.0413 40.2856 52.0413C40.1114 52.0413 39.9409 51.9904 39.7952 51.895C39.6494 51.7995 39.5347 51.6636 39.4651 51.5039L34.6663 41.8816C34.3761 41.3056 33.9386 40.8166 33.3983 40.4643L1.92062 19.8025C1.76235 19.6145 1.53591 19.4971 1.29111 19.4762C1.04631 19.4552 0.8032 19.5323 0.615262 19.6906C0.427324 19.8488 0.309953 20.0753 0.28897 20.3201C0.267987 20.5649 0.345111 20.808 0.503374 20.9959L13.6564 46.5809C13.7203 46.7148 13.7518 46.8619 13.7483 47.0103C13.7447 47.1587 13.7063 47.3041 13.6361 47.4349C13.5659 47.5657 13.4658 47.678 13.3441 47.7629C13.2223 47.8478 13.0823 47.9028 12.9353 47.9235H5.0286C4.83335 47.9217 4.64258 47.982 4.48391 48.0958C4.32523 48.2096 4.20687 48.3709 4.14595 48.5564C4.08504 48.7419 4.08473 48.942 4.14507 49.1277C4.20541 49.3134 4.32327 49.4751 4.4816 49.5894L39.7386 74.8511C39.8997 74.9612 40.0904 75.0201 40.2856 75.0201C40.4808 75.0201 40.6714 74.9612 40.8326 74.8511L76.0896 49.5894C76.2479 49.4751 76.3658 49.3134 76.4261 49.1277C76.4864 48.942 76.4861 48.7419 76.4252 48.5564C76.3643 48.3709 76.2459 48.2096 76.0873 48.0958C75.9286 47.982 75.7378 47.9217 75.5426 47.9235H67.6358C67.4802 47.9175 67.3285 47.8732 67.1942 47.7944C67.0598 47.7157 66.947 47.6049 66.8658 47.4721C66.7846 47.3392 66.7375 47.1883 66.7287 47.0328C66.7199 46.8773 66.7497 46.7221 66.8153 46.5809L80.0678 20.9959C80.2261 20.808 80.3032 20.5649 80.2822 20.3201C80.2612 20.0753 80.1439 19.8488 79.9559 19.6906C79.768 19.5323 79.5249 19.4552 79.2801 19.4762C79.0353 19.4971 78.8088 19.6145 78.6506 19.8025Z" fill="#FBB848"/>
    <path d="M40.9819 0.855943L44.2142 7.44487C44.2718 7.55371 44.353 7.64822 44.452 7.72139C44.551 7.79456 44.6652 7.84451 44.7861 7.86756L52.0712 8.91184C52.2138 8.93278 52.3477 8.99328 52.4576 9.08646C52.5676 9.17965 52.6492 9.30179 52.6932 9.43903C52.7372 9.57626 52.7419 9.72308 52.7067 9.86283C52.6714 10.0026 52.5977 10.1297 52.4939 10.2296L47.2228 15.3516C47.1378 15.4397 47.0735 15.5457 47.0348 15.6619C46.9961 15.778 46.9839 15.9014 46.999 16.0229L48.2422 23.2583C48.2695 23.3978 48.2565 23.5422 48.2045 23.6744C48.1525 23.8067 48.0639 23.9214 47.9489 24.005C47.834 24.0886 47.6976 24.1376 47.5557 24.1463C47.4138 24.155 47.2725 24.1229 47.1482 24.0539L40.6339 20.6476C40.528 20.5865 40.408 20.5543 40.2858 20.5543C40.1636 20.5543 40.0435 20.5865 39.9377 20.6476L33.4233 24.0539C33.2991 24.1229 33.1577 24.155 33.0158 24.1463C32.874 24.1376 32.7375 24.0886 32.6226 24.005C32.5076 23.9214 32.419 23.8067 32.367 23.6744C32.3151 23.5422 32.302 23.3978 32.3293 23.2583L33.5725 16.0229C33.5877 15.9014 33.5754 15.778 33.5367 15.6619C33.498 15.5457 33.4338 15.4397 33.3487 15.3516L28.0776 10.2296C27.9738 10.1297 27.9001 10.0026 27.8649 9.86283C27.8296 9.72308 27.8343 9.57626 27.8783 9.43903C27.9223 9.30179 28.0039 9.17965 28.1139 9.08646C28.2238 8.99328 28.3577 8.93278 28.5003 8.91184L35.7854 7.89242C35.9063 7.86938 36.0205 7.81942 36.1195 7.74625C36.2185 7.67308 36.2998 7.57858 36.3573 7.46974L39.5896 0.880807C39.6497 0.747984 39.7464 0.634955 39.8682 0.554844C39.99 0.474733 40.1321 0.430827 40.2779 0.428223C40.4237 0.42562 40.5672 0.464426 40.6919 0.540136C40.8165 0.615846 40.9171 0.725353 40.9819 0.855943Z" fill="#FBB848"/>
</svg>
