<svg width="81" height="81" viewBox="0 0 81 81" fill="none" xmlns="http://www.w3.org/2000/svg">
    <path
        d="M40.2856 0.51421C35.0627 0.484107 29.885 1.48307 25.0482 3.45405C20.2114 5.42504 15.8102 8.32945 12.0958 12.0015C8.38144 15.6735 5.4267 20.0411 3.4003 24.8551C1.3739 29.669 0.315514 34.835 0.285583 40.058V40.5152C0.286099 48.407 2.62098 56.1224 6.99635 62.6903C11.3717 69.2581 17.5921 74.3849 24.8745 77.4255C32.157 80.466 40.1761 81.2844 47.9226 79.7777C55.6691 78.2709 62.7968 74.5064 68.4087 68.9578C74.0206 63.4092 77.8658 56.3245 79.4604 48.5954C81.0551 40.8664 80.3279 32.8383 77.3704 25.5216C74.4128 18.2049 69.3571 11.9265 62.8396 7.47669C56.322 3.02686 48.6339 0.604403 40.7427 0.51421H40.2856ZM66.0887 25.2767L57.4792 41.5311C57.4792 42.039 57.4792 42.039 57.9872 42.5216H63.0665C63.5999 42.5216 63.5999 42.5216 63.5999 43.0549V43.5629L40.7427 59.7664H40.2856L17.0475 43.5629V42.5216H22.6348C22.6989 42.5287 22.7639 42.5222 22.8254 42.5025C22.8868 42.4828 22.9434 42.4502 22.9914 42.407C23.0394 42.3639 23.0777 42.311 23.1038 42.2519C23.1298 42.1929 23.1431 42.129 23.1427 42.0644L14.4824 25.2767V24.2608H15.5237L35.8411 37.4167C36.3491 37.4167 36.3491 37.9246 36.8824 38.458L39.9046 45.0359C40.4126 45.0359 40.4126 45.5185 40.9205 45.0359L41.4284 44.528L44.4761 38.458C44.4761 37.9246 44.984 37.9246 45.4665 37.4167L65.784 23.7783C66.2919 23.7783 66.2919 23.7783 66.2919 24.2608V25.2767H66.0887Z"
        fill="#F47B67" />
</svg>
