<svg width="81" height="81" viewBox="0 0 81 81" fill="none" xmlns="http://www.w3.org/2000/svg">
    <path
        d="M79.0855 0.51355H1.48572C1.32812 0.51355 1.17205 0.542429 1.02645 0.59854C0.88084 0.65465 0.748538 0.736893 0.637095 0.840571C0.412026 1.04996 0.285583 1.33395 0.285583 1.63007V51.4928C0.288956 51.6571 0.329573 51.8189 0.404778 51.9676C0.479982 52.1162 0.588079 52.2485 0.721997 52.3556L39.5355 80.2686C39.7484 80.4272 40.0129 80.5135 40.2856 80.5135C40.5583 80.5135 40.8228 80.4272 41.0357 80.2686L79.8219 52.3556C79.9636 52.2532 80.0788 52.1225 80.1591 51.9732C80.2393 51.8239 80.2825 51.6598 80.2856 51.4928V1.63007C80.2856 1.33395 80.1591 1.04996 79.9341 0.840571C79.709 0.631183 79.4037 0.51355 79.0855 0.51355ZM68.1751 23.1738L59.065 39.9724C58.9853 40.111 58.9664 40.273 59.0122 40.4243C59.0579 40.5757 59.1648 40.7047 59.3105 40.7844H65.0384C65.11 40.7604 65.186 40.7499 65.262 40.7536C65.338 40.7572 65.4124 40.7749 65.481 40.8056C65.5496 40.8363 65.6109 40.8794 65.6613 40.9324C65.7118 40.9854 65.7504 41.0473 65.7748 41.1143C65.8289 41.2558 65.8222 41.4113 65.7561 41.5484C65.6901 41.6854 65.5698 41.7935 65.4203 41.8502L40.6538 58.5218C40.5425 58.5962 40.409 58.6362 40.2719 58.6362C40.1349 58.6362 40.0014 58.5962 39.8901 58.5218L14.8236 41.9517C14.7481 41.9287 14.6782 41.8921 14.6181 41.8438C14.5579 41.7956 14.5086 41.7367 14.4731 41.6706C14.4376 41.6045 14.4165 41.5325 14.4111 41.4588C14.4058 41.3851 14.4162 41.3111 14.4417 41.2412C14.4634 41.1719 14.4999 41.1074 14.5491 41.0516C14.5984 40.9958 14.6593 40.9499 14.7281 40.9167C14.797 40.8835 14.8724 40.8636 14.9498 40.8583C15.0271 40.853 15.1048 40.8624 15.1782 40.8859H20.6334C20.8046 40.8731 20.9643 40.8007 21.0806 40.6831C21.1969 40.5655 21.2612 40.4113 21.2607 40.2515C21.2887 40.1603 21.2887 40.0636 21.2607 39.9724L12.2869 23.1738C12.2271 23.0414 12.2219 22.8932 12.2722 22.7574C12.3225 22.6216 12.4249 22.5079 12.5597 22.4379C12.6654 22.3746 12.7885 22.3409 12.9143 22.3409C13.0401 22.3409 13.1632 22.3746 13.2689 22.4379L35.4169 35.9631C35.8016 36.2139 36.1189 36.5438 36.3442 36.9273L39.6992 43.2458C39.7465 43.3185 39.8091 43.3815 39.8831 43.4313C39.9572 43.481 40.0412 43.5164 40.1303 43.5353C40.2193 43.5543 40.3116 43.5564 40.4015 43.5415C40.4914 43.5266 40.5772 43.4951 40.6538 43.4488C40.7397 43.3946 40.8138 43.3258 40.872 43.2458L44.2269 36.9273C44.4428 36.5455 44.7509 36.2155 45.127 35.9631L67.3023 22.4379C67.4284 22.3292 67.594 22.2687 67.766 22.2687C67.938 22.2687 68.1036 22.3292 68.2297 22.4379C68.2825 22.5365 68.31 22.645 68.31 22.7551C68.31 22.8652 68.2825 22.9738 68.2297 23.0723L68.1751 23.1738Z"
        fill="#9C84EF" />
</svg>
