<svg width="81" height="57" viewBox="0 0 81 57" fill="none" xmlns="http://www.w3.org/2000/svg">
    <path fill-rule="evenodd" clip-rule="evenodd" d="M7.52421 17.5036C7.52421 15.9831 6.23185 14.7163 4.68077 14.7163H3.1297C1.57862 14.7163 0.285645 15.9831 0.285645 17.5036C0.285645 19.024 1.57862 20.2908 3.1297 20.2908H4.68077C6.23185 20.2908 7.52421 19.024 7.52421 17.5036Z" fill="#4F5D7F"/>
    <path fill-rule="evenodd" clip-rule="evenodd" d="M77.5816 16.7444C72.9284 6.86158 63.1051 1.03346 52.7644 0.526245H23.5526C20.9673 0.526245 19.1575 2.55389 19.1575 4.83454C19.1575 7.36819 21.226 9.14223 23.5526 9.14223H31.0493C32.6004 9.14223 33.8927 10.4091 33.8927 11.9295C33.8927 13.4499 32.6004 14.7173 31.0493 14.7173H12.6951C11.144 14.7173 9.85105 15.9842 9.85105 17.5046C9.85105 19.025 11.144 20.2919 12.6951 20.2919H25.8792C27.4303 20.2919 28.7227 21.5593 28.7227 23.0797C28.7227 24.6002 27.4303 25.867 25.8792 25.867H17.6064C16.0554 25.867 14.763 27.1338 14.763 28.6542C14.763 30.1747 16.0554 31.4421 17.6064 31.4421H23.2939C23.5526 34.483 24.3282 37.5238 25.6205 40.3111C32.0836 54.2486 49.1454 60.3303 63.3632 53.995C78.0984 47.4066 84.3027 30.6819 77.5816 16.7444Z" fill="#4F5D7F"/>
    <path fill-rule="evenodd" clip-rule="evenodd" d="M44.9103 13.9481C53.0844 10.2687 62.7538 13.7821 66.5075 21.7947C70.2611 29.8074 66.6775 39.2858 58.5027 42.9652C50.3285 46.6447 40.6591 43.1313 36.9055 35.1186C33.1519 27.1059 36.7361 17.6275 44.9103 13.9481Z" fill="#ECEFF8"/>
    <path fill-rule="evenodd" clip-rule="evenodd" d="M57.9338 19.2781L63.1038 27.8941C63.3625 28.4007 63.3625 28.6543 63.1038 29.1609L57.9338 37.7769C57.6751 38.2835 57.1582 38.2835 56.8995 38.2835H46.8175C46.3007 38.2835 46.042 38.0299 45.7839 37.7769L40.6132 29.1609C40.3551 28.6543 40.3551 28.4007 40.6132 27.8941L45.7839 19.2781C46.042 18.7715 46.5594 18.7715 46.8175 18.7715H56.8995C57.417 18.5179 57.6751 18.7715 57.9338 19.2781Z" fill="#B7C2CE"/>
</svg>
