<svg width="81" height="53" viewBox="0 0 81 53" fill="none" xmlns="http://www.w3.org/2000/svg">
    <path
        d="M59.4436 13.7545L49.2349 20.2637C47.7766 20.987 47.0474 20.987 45.5889 20.2637C44.8596 19.5405 43.4014 18.8172 42.6721 18.094C39.7554 17.3707 37.5679 18.094 35.3801 19.5405L31.7341 21.7102L13.5044 34.0057C9.12924 36.1755 4.02487 35.4522 1.83729 31.1125C-1.07949 27.4962 0.378902 22.4335 4.02487 19.5405L25.9006 5.07532C31.7341 1.45903 39.0261 0.0125278 45.5889 1.45903C51.4224 2.90555 55.7976 5.79857 59.4436 10.1381C60.9021 11.5847 60.1729 13.0312 59.4436 13.7545Z"
        fill="#5865F2" />
    <path
        d="M80.2856 26.4502C80.2856 29.3259 78.8296 32.2019 76.6454 33.6399L54.0767 48.0191C49.7084 50.8949 45.3402 52.3329 40.2439 52.3329C38.0599 52.3329 36.6039 52.3329 34.4197 51.6139C28.5957 50.1761 24.2274 47.3001 20.5872 42.9864C19.8592 41.5484 20.5872 40.1104 21.3153 39.3916L31.5077 32.9209C32.2357 32.2019 33.6917 32.2019 34.4197 32.9209C35.8759 33.6399 37.3319 34.3589 38.0599 35.0776C40.9722 35.0776 43.1562 35.0777 45.3402 33.6399L50.4364 30.7639L64.9969 20.6984L67.1812 19.2604C70.8212 17.1037 76.6454 17.8227 78.8297 21.4174C80.2857 23.5744 80.2856 25.0122 80.2856 26.4502Z"
        fill="#5865F2" />
</svg>
