<svg width="81" height="81" viewBox="0 0 81 81" fill="none" xmlns="http://www.w3.org/2000/svg">
    <g clip-path="url(#clip0_517_1892)">
        <path fill-rule="evenodd" clip-rule="evenodd"
            d="M80.5 40.4999C80.5 44.4499 74.1 47.3999 72.9 50.9499C71.7 54.4999 75.1 60.9499 72.9 63.8999C70.7 66.8499 63.7 65.6499 60.6 67.8999C57.5 70.1499 56.65 77.0999 52.9 78.3499C49.15 79.5999 44.55 74.3499 40.55 74.3499C36.55 74.3499 31.8 79.3499 28.2 78.3499C24.6 77.3499 23.6 70.1499 20.5 67.8999C17.4 65.6499 10.5 66.9999 8.2 63.8999C5.9 60.7999 9.35 54.6999 8.2 50.9499C7.05 47.1999 0.5 44.4499 0.5 40.4999C0.5 36.5499 6.9 33.5999 8.1 30.0499C9.3 26.4999 5.9 20.0499 8.1 17.0999C10.3 14.1499 17.35 15.3499 20.5 13.0999C23.65 10.8499 24.4 3.89986 28.15 2.49986C31.9 1.09986 36.5 6.64986 40.5 6.64986C44.5 6.64986 49.25 1.64986 52.85 2.64986C56.45 3.64986 57.4 10.8499 60.5 13.0999C63.6 15.3499 70.5 13.9999 72.8 17.0999C75.1 20.1999 71.65 26.2999 72.8 30.0499C73.95 33.7999 80.5 36.5499 80.5 40.4999Z"
            fill="#5865F2" />
        <path
            d="M50.2038 34.0872L44.9916 37.4418C44.2469 37.8146 43.8747 37.8146 43.13 37.4418C42.7578 37.0691 42.0132 36.6964 41.6409 36.3236C40.1517 35.9509 39.0348 36.3236 37.9179 37.0691L36.0564 38.1873L26.749 44.5238C24.5152 45.642 21.9091 45.2693 20.7922 43.0328C19.303 41.1692 20.0476 38.56 21.9091 37.0691L33.078 29.6144C36.0564 27.7508 39.7794 27.0053 43.13 27.7508C46.1085 28.4962 48.3423 29.9872 50.2038 32.2236C50.9485 32.969 50.5761 33.7145 50.2038 34.0872Z"
            fill="white" />
        <path
            d="M61 39.3059C61 40.7968 60.2556 42.2878 59.1385 43.0332L47.5974 50.4881C45.3636 51.979 43.1298 52.7245 40.5237 52.7245C39.4068 52.7245 38.6623 52.7245 37.5454 52.3518C34.567 51.6063 32.3332 50.1154 30.4717 47.879C30.0994 47.1333 30.4717 46.3878 30.844 46.0151L36.0562 42.6605C36.4285 42.2878 37.173 42.2878 37.5454 42.6605C38.2899 43.0332 39.0345 43.406 39.4068 43.7787C40.896 43.7787 42.0129 43.7787 43.1298 43.0332L45.7359 41.5423L53.1819 36.324L54.2986 35.5786C56.1604 34.4604 59.1385 34.8331 60.2556 36.6968C61 37.815 61 38.5604 61 39.3059Z"
            fill="white" />
    </g>
    <defs>
        <clipPath id="clip0_517_1892">
            <rect width="80" height="80" fill="white" transform="translate(0.5 0.5)" />
        </clipPath>
    </defs>
</svg>
