<svg width="81" height="81" viewBox="0 0 81 81" fill="none" xmlns="http://www.w3.org/2000/svg">
    <g clip-path="url(#clip0_517_1890)">
        <path fill-rule="evenodd" clip-rule="evenodd"
            d="M80.5 40.5006C80.5 44.4506 74.1 47.4006 72.9 50.9506C71.7 54.5006 75.1 60.9506 72.9 63.9006C70.7 66.8506 63.7 65.6506 60.6 67.9006C57.5 70.1506 56.65 77.1006 52.9 78.3506C49.15 79.6006 44.55 74.3506 40.55 74.3506C36.55 74.3506 31.8 79.3506 28.2 78.3506C24.6 77.3506 23.6 70.1506 20.5 67.9006C17.4 65.6506 10.5 67.0006 8.2 63.9006C5.9 60.8006 9.35 54.7006 8.2 50.9506C7.05 47.2006 0.5 44.4506 0.5 40.5006C0.5 36.5506 6.9 33.6006 8.1 30.0506C9.3 26.5006 5.9 20.0506 8.1 17.1006C10.3 14.1506 17.35 15.3506 20.5 13.1006C23.65 10.8506 24.4 3.90059 28.15 2.50059C31.9 1.10059 36.5 6.65059 40.5 6.65059C44.5 6.65059 49.25 1.65059 52.85 2.65059C56.45 3.65059 57.4 10.8506 60.5 13.1006C63.6 15.3506 70.5 14.0006 72.8 17.1006C75.1 20.2006 71.65 26.3006 72.8 30.0506C73.95 33.8006 80.5 36.5506 80.5 40.5006Z"
            fill="#23A758" />
        <path fill-rule="evenodd" clip-rule="evenodd"
            d="M58.4451 29.2763C58.929 29.77 59.2 30.4337 59.2 31.125C59.2 31.8163 58.929 32.48 58.4451 32.9737L37.3175 54.1012C36.8238 54.5851 36.1601 54.8562 35.4688 54.8562C34.7776 54.8562 34.1138 54.5851 33.6202 54.1012L23.0564 43.5375C22.7537 43.3104 22.5033 43.021 22.3222 42.6888C22.1411 42.3566 22.0335 41.9893 22.0066 41.6119C21.9798 41.2345 22.0344 40.8557 22.1667 40.5012C22.299 40.1467 22.506 39.8248 22.7735 39.5573C23.0411 39.2897 23.363 39.0828 23.7175 38.9505C24.072 38.8182 24.4507 38.7636 24.8282 38.7904C25.2056 38.8172 25.5728 38.9248 25.905 39.1059C26.2373 39.287 26.5267 39.5374 26.7537 39.8401L35.4688 48.5288L54.7477 29.2499C55.2414 28.766 55.9051 28.495 56.5964 28.495C57.2877 28.495 57.9514 28.766 58.4451 29.2499V29.2763Z"
            fill="white" />
    </g>
    <defs>
        <clipPath id="clip0_517_1890">
            <rect width="80" height="80" fill="white" transform="translate(0.5 0.5)" />
        </clipPath>
    </defs>
</svg>
