<svg width="81" height="81" viewBox="0 0 81 81" fill="none" xmlns="http://www.w3.org/2000/svg">
    <path fill="currentColor" fill-rule="evenodd"
        d="M7.1667 17.4594C7.1667 14.8072 8.22027 12.2636 10.0956 10.3883C11.971 8.51292 14.5145 7.45935 17.1667 7.45935H63.8334C66.4855 7.45935 69.0291 8.51292 70.9044 10.3883C72.7798 12.2636 73.8334 14.8072 73.8334 17.4594V64.126C73.8334 66.7782 72.7798 69.3217 70.9044 71.1971C69.0291 73.0724 66.4855 74.126 63.8334 74.126H17.1667C14.5145 74.126 11.971 73.0724 10.0956 71.1971C8.22027 69.3217 7.1667 66.7782 7.1667 64.126V17.4594ZM51.6667 44.5593L63.3334 60.126C64.5667 61.7927 63.4 64.126 61.3334 64.126H19.8667C19.3937 64.1295 18.9294 63.9987 18.5277 63.7489C18.126 63.499 17.8035 63.1404 17.5976 62.7145C17.3916 62.2887 17.3107 61.8131 17.3643 61.3431C17.4178 60.8731 17.6036 60.428 17.9 60.0594L24.1 52.326C24.5685 51.742 25.1622 51.2707 25.8372 50.9469C26.5122 50.623 27.2514 50.4549 28 50.4549C28.7487 50.4549 29.4878 50.623 30.1628 50.9469C30.8379 51.2707 31.4315 51.742 31.9 52.326L33.5667 54.4594L41 44.5593C41.621 43.7314 42.4262 43.0594 43.3519 42.5965C44.2776 42.1336 45.2984 41.8927 46.3334 41.8927C47.3683 41.8927 48.3891 42.1336 49.3148 42.5965C50.2405 43.0594 51.0457 43.7314 51.6667 44.5593ZM34.5 20.726C35.2667 17.6927 31.5667 15.5594 29.3334 17.726C28.7542 18.292 27.9765 18.6089 27.1667 18.6089C26.3569 18.6089 25.5792 18.292 25 17.726C22.7667 15.5594 19.0667 17.6927 19.8334 20.726C20.0282 21.5079 19.911 22.3348 19.5066 23.0317C19.1021 23.7286 18.4422 24.2407 17.6667 24.4594C14.6667 25.326 14.6667 29.5927 17.6667 30.4593C19.2667 30.926 20.2334 32.5594 19.8334 34.1927C19.0667 37.226 22.7667 39.3594 25 37.1927C25.5792 36.6267 26.3569 36.3098 27.1667 36.3098C27.9765 36.3098 28.7542 36.6267 29.3334 37.1927C31.5667 39.3594 35.2667 37.226 34.5 34.1927C34.3052 33.4108 34.4224 32.5839 34.8268 31.887C35.2313 31.1901 35.8912 30.678 36.6667 30.4593C39.6667 29.5927 39.6667 25.326 36.6667 24.4594C35.8912 24.2407 35.2313 23.7286 34.8268 23.0317C34.4224 22.3348 34.3052 21.5079 34.5 20.726Z"
        clip-rule="evenodd">
    </path>
</svg>
